<svg width="19" height="14" viewBox="0 0 19 14" fill="none" xmlns="http://www.w3.org/2000/svg">
<path d="M0.059705 2.7587C1.05339 4.80302 3.14525 7.125 6.0922 9.23337C9.03914 11.3418 12.2846 12.8384 15.142 13.5493C15.5301 13.6454 15.9587 13.5768 16.2508 13.3693L18.2275 11.9551L18.6881 11.6255C19.104 11.328 19.104 10.8444 18.6881 10.5469L15.6282 8.3592C15.2124 8.0617 14.5364 8.0617 14.1206 8.3592L13.2911 8.95266C12.8604 9.26083 12.1738 9.29135 11.6918 9.02284C10.7387 8.49193 9.79402 7.89543 8.87923 7.24093C7.96444 6.58644 7.13068 5.91059 6.38862 5.22865C6.0133 4.88386 6.05595 4.39414 6.48671 4.08444L7.3162 3.49098C7.73201 3.19348 7.73201 2.70986 7.3162 2.41237L4.25624 0.22312C3.84043 -0.0743735 3.16447 -0.0743735 2.74865 0.22312L2.28806 0.552652L0.311347 1.96689C0.0213222 2.17439 -0.0746347 2.48104 0.059705 2.7587Z" fill="black"/>
</svg>
