<svg width="19" height="19" viewBox="0 0 19 19" fill="none" xmlns="http://www.w3.org/2000/svg">
<path d="M14.2349 0H4.75C2.14127 0 0 2.14127 0 4.76508V14.25C0 16.8587 2.14127 19 4.75 19H14.2349C16.8587 19 19 16.8587 19 14.2349V4.76508C19 2.14127 16.8587 0 14.2349 0ZM12.0484 9.5H10.254V15.381H7.99206V9.5H6.78571V7.0873H7.84127V6.0619C7.84127 5.09683 8.32381 3.57381 10.3595 3.57381H12.2143V5.57937H10.9024C10.6913 5.57937 10.4048 5.71508 10.4048 6.18254V7.0873H12.2595L12.0484 9.5Z" fill="black"/>
</svg>
