<svg width="19" height="18" viewBox="0 0 19 18" fill="none" xmlns="http://www.w3.org/2000/svg">
<path d="M9.49745 5.73771C7.75305 5.73771 6.32949 7.02769 6.32949 8.6084C6.32949 10.1891 7.75305 11.4791 9.49745 11.4791C11.2418 11.4791 12.6654 10.1891 12.6654 8.6084C12.6654 7.02769 11.2418 5.73771 9.49745 5.73771ZM18.9989 8.6084C18.9989 7.41964 19.0108 6.24164 18.9371 5.05503C18.8635 3.67676 18.5165 2.45354 17.4043 1.44568C16.2897 0.435658 14.9421 0.123393 13.4211 0.056633C12.1093 -0.0101272 10.8093 0.000640562 9.49982 0.000640562C8.18796 0.000640562 6.88798 -0.0101272 5.5785 0.056633C4.0575 0.123393 2.70761 0.437812 1.59538 1.44568C0.480772 2.45569 0.136171 3.67676 0.0624975 5.05503C-0.0111759 6.2438 0.000706894 7.42179 0.000706894 8.6084C0.000706894 9.79501 -0.0111759 10.9752 0.0624975 12.1618C0.136171 13.54 0.483149 14.7633 1.59538 15.7711C2.70999 16.7811 4.0575 17.0934 5.5785 17.1602C6.89036 17.2269 8.19034 17.2162 9.49982 17.2162C10.8117 17.2162 12.1117 17.2269 13.4211 17.1602C14.9421 17.0934 16.292 16.779 17.4043 15.7711C18.5189 14.7611 18.8635 13.54 18.9371 12.1618C19.0132 10.9752 18.9989 9.79716 18.9989 8.6084V8.6084ZM9.49745 13.0253C6.80005 13.0253 4.62312 11.0527 4.62312 8.6084C4.62312 6.16411 6.80005 4.19146 9.49745 4.19146C12.1948 4.19146 14.3718 6.16411 14.3718 8.6084C14.3718 11.0527 12.1948 13.0253 9.49745 13.0253ZM14.5714 5.04211C13.9416 5.04211 13.433 4.58125 13.433 4.01056C13.433 3.43987 13.9416 2.97901 14.5714 2.97901C15.2012 2.97901 15.7098 3.43987 15.7098 4.01056C15.71 4.14607 15.6806 4.28029 15.6235 4.40552C15.5664 4.53075 15.4825 4.64453 15.3768 4.74036C15.271 4.83618 15.1455 4.91216 15.0073 4.96394C14.8691 5.01572 14.721 5.04228 14.5714 5.04211V5.04211Z" fill="black"/>
</svg>
