<svg width="81" height="47" viewBox="0 0 81 47" fill="none" xmlns="http://www.w3.org/2000/svg">
<path d="M25.0065 33.4409C21.123 33.4409 17.9757 36.4482 17.9757 40.1609C17.9757 43.8738 21.123 46.8811 25.0065 46.8811C28.8915 46.8811 32.038 43.8738 32.038 40.1609C32.038 36.4482 28.8915 33.4409 25.0065 33.4409ZM25.0065 43.0825C23.3183 43.0825 21.9504 41.7747 21.9504 40.1609C21.9504 38.5464 23.3183 37.2393 25.0065 37.2393C26.695 37.2393 28.0639 38.5464 28.0639 40.1609C28.0639 41.7747 26.695 43.0825 25.0065 43.0825Z" fill="#D4C7A0"/>
<path d="M62.0812 33.4409C58.1976 33.4409 55.0505 36.4482 55.0505 40.1609C55.0505 43.8738 58.1976 46.8811 62.0812 46.8811C65.9663 46.8811 69.1126 43.8738 69.1126 40.1609C69.1126 36.4482 65.9663 33.4409 62.0812 33.4409ZM62.0812 43.0825C60.393 43.0825 59.0252 41.7747 59.0252 40.1609C59.0252 38.5464 60.393 37.2393 62.0812 37.2393C63.7698 37.2393 65.1387 38.5464 65.1387 40.1609C65.1387 41.7747 63.7698 43.0825 62.0812 43.0825Z" fill="#D4C7A0"/>
<path d="M32.9163 12.7911C32.9163 13.7328 32.1101 14.5032 31.1252 14.5032H6.40882C5.42367 14.5032 4.61792 13.7328 4.61792 12.7911V11.7639C4.61792 10.8224 5.42386 10.052 6.40882 10.052H31.1252C32.1103 10.052 32.9163 10.8224 32.9163 11.7639V12.7911Z" fill="#D4C7A0"/>
<path d="M75.8582 22.815C73.2802 22.1744 71.805 21.7716 70.7927 19.9028L67.4078 13.3517C66.3951 11.4829 63.7651 9.95378 61.564 9.95378H56.9343C56.9343 9.95378 56.3115 9.96619 56.3115 9.36709C56.3115 7.99345 56.3115 3.87271 56.3115 3.87271C56.3115 1.74277 55.0505 0 52.3683 0H14.6366C10.7965 0 8.97336 1.74295 8.97336 3.87271V7.31593C8.97336 7.31593 8.97336 8.34 10.0102 8.34C15.2889 8.34 31.1252 8.34 31.1252 8.34C33.1004 8.34 34.7073 9.87593 34.7073 11.764V12.7913C34.7073 14.6794 33.1004 16.2154 31.1252 16.2154H10.0102C10.0102 16.2154 8.97336 16.133 8.97336 17.203C8.97336 17.7344 8.97336 18.0911 8.97336 18.3871C8.97336 19.3288 10.3236 19.3282 10.3236 19.3282H24.5371C26.5124 19.3282 28.1193 20.8643 28.1193 22.7522V23.7795C28.1193 25.6676 26.5124 27.2036 24.5371 27.2036H10.5479C10.5479 27.2036 8.97336 27.1757 8.97336 28.3741C8.97336 30.4542 8.97336 36.6942 8.97336 36.6942C8.97336 38.8239 10.7965 40.5669 13.0247 40.5669C13.0247 40.5669 14.7031 40.5669 15.2626 40.5669C15.7701 40.5669 15.8448 40.2967 15.8448 40.1609C15.8448 35.3322 19.955 31.4042 25.0067 31.4042C30.0588 31.4042 34.1687 35.3326 34.1687 40.1609C34.1687 40.2972 34.1282 40.5669 34.5163 40.5669C38.9523 40.5669 52.576 40.5669 52.576 40.5669C52.9341 40.5669 52.9195 40.2784 52.9195 40.1609C52.9195 35.3322 57.0295 31.4042 62.0814 31.4042C67.1332 31.4042 71.2432 35.3326 71.2432 40.1609C71.2432 40.2972 71.2397 40.5669 71.4637 40.5669C73.4978 40.5669 76.0169 40.5669 76.0169 40.5669C78.2191 40.5669 80.0205 38.845 80.0205 36.7401V29.4696C80.0207 23.3468 77.9982 23.3468 75.8582 22.815ZM68.2399 22.4745C68.2399 22.4745 59.7381 22.4745 56.8446 22.4745C56.3738 22.4745 56.3113 22.0364 56.3113 22.0364V12.9624C56.3113 12.9624 56.2847 12.614 56.8892 12.614C57.7023 12.614 60.1408 12.614 60.1408 12.614C62.0998 12.614 64.44 13.9747 65.3407 15.6375L68.3529 21.4668C68.4797 21.7015 68.6153 21.9098 68.7605 22.0965C68.8675 22.2334 68.6881 22.4745 68.2399 22.4745Z" fill="#D4C7A0"/>
<path d="M26.328 23.7794C26.328 24.7211 25.5221 25.4915 24.5371 25.4915H1.79084C0.805687 25.4915 -6.10352e-05 24.7211 -6.10352e-05 23.7794V22.7522C-6.10352e-05 21.8107 0.805884 21.0403 1.79084 21.0403H24.5371C25.5223 21.0403 26.328 21.8107 26.328 22.7522V23.7794Z" fill="#D4C7A0"/>
</svg>
