<svg width="47" height="48" viewBox="0 0 47 48" fill="none" xmlns="http://www.w3.org/2000/svg">
<g clip-path="url(#clip0_147_270)">
<path d="M9.79169 35.8792C6.46252 35.8792 3.91669 38.425 3.91669 41.7541C3.91669 45.0833 6.46252 47.6291 9.79169 47.6291C13.1209 47.6291 15.6667 45.0833 15.6667 41.7541C15.6667 38.425 13.1209 35.8792 9.79169 35.8792ZM9.79169 43.7125C8.61669 43.7125 7.83335 42.9291 7.83335 41.7541C7.83335 40.5791 8.61669 39.7958 9.79169 39.7958C10.9667 39.7958 11.75 40.5791 11.75 41.7541C11.75 42.9291 10.9667 43.7125 9.79169 43.7125Z" fill="#D4C7A0"/>
<path d="M41.125 35.8792C37.7958 35.8792 35.25 38.425 35.25 41.7541C35.25 45.0833 37.7958 47.6291 41.125 47.6291C44.4542 47.6291 47 45.0833 47 41.7541C47 38.425 44.4542 35.8792 41.125 35.8792ZM41.125 43.7125C39.95 43.7125 39.1667 42.9291 39.1667 41.7541C39.1667 40.5791 39.95 39.7958 41.125 39.7958C42.3 39.7958 43.0833 40.5791 43.0833 41.7541C43.0833 42.9291 42.3 43.7125 41.125 43.7125Z" fill="#D4C7A0"/>
<path d="M7.83333 16.2958H1.95833C0.783333 16.2958 0 17.0792 0 18.2542V28.0458C0 29.2208 0.783333 30.0042 1.95833 30.0042H7.83333C9.00833 30.0042 9.79167 29.2208 9.79167 28.0458V18.2542C9.79167 17.0792 9.00833 16.2958 7.83333 16.2958ZM5.875 26.0875H3.91667V20.2125H5.875V26.0875Z" fill="#D4C7A0"/>
<path d="M17.625 0.62915C14.2958 0.62915 11.75 3.17498 11.75 6.50415C11.75 9.83332 14.2958 12.3792 17.625 12.3792C20.9542 12.3792 23.5 9.83332 23.5 6.50415C23.5 3.17498 20.9542 0.62915 17.625 0.62915ZM17.625 8.46248C16.45 8.46248 15.6667 7.67915 15.6667 6.50415C15.6667 5.32915 16.45 4.54582 17.625 4.54582C18.8 4.54582 19.5833 5.32915 19.5833 6.50415C19.5833 7.67915 18.8 8.46248 17.625 8.46248Z" fill="#D4C7A0"/>
<path d="M29.375 20.0166V14.3375C29.375 13.1625 28.5917 12.3791 27.4167 12.3791H23.1083C22.325 10.0291 20.1708 8.46246 17.625 8.46246C14.2958 8.46246 11.75 11.0083 11.75 14.3375V28.0458C11.75 29.2208 12.5333 30.0041 13.7083 30.0041H15.0792C15.4708 30.2 15.6667 30.3958 15.6667 30.5916C15.6667 31.375 15.4708 32.1583 15.275 32.9416L14.2958 35.2916C13.7083 36.4666 14.6875 37.8375 16.0583 37.8375H27.4167C28.7875 37.8375 29.7667 36.4666 29.1792 35.0958L25.2625 24.7166C24.8708 23.15 23.3042 21.975 21.5417 21.975H27.4167C28.5917 21.975 29.375 21.1916 29.375 20.0166ZM25.4583 18.2541H19.5833C18.4083 18.2541 17.625 19.0375 17.625 20.2125V24.1291C17.625 25.3041 18.4083 26.0875 19.5833 26.0875H21.5417L24.4792 33.9208H18.9958C19.3875 32.7458 19.5833 31.5708 19.5833 30.5916C19.5833 28.4375 18.0167 26.675 15.8625 26.0875H15.6667V14.3375C15.6667 13.1625 16.45 12.3791 17.625 12.3791C18.8 12.3791 19.5833 13.1625 19.5833 14.3375C19.5833 15.5125 20.3667 16.2958 21.5417 16.2958H25.4583V18.2541Z" fill="#D4C7A0"/>
<path d="M39.7542 24.325C39.3625 21.975 38.775 20.6041 37.2083 19.625V14.3375C37.2083 13.1625 36.425 12.3792 35.25 12.3792H27.4167C26.2417 12.3792 25.4583 13.1625 25.4583 14.3375V20.2125C25.4583 21.3875 26.2417 22.1708 27.4167 22.1708V33.9208H18.9958C19.3875 32.7458 19.5833 31.5708 19.5833 30.5916C19.5833 28.4375 18.0167 26.675 15.8625 26.0875H15.4708H1.95833C0.783333 26.0875 0 26.8708 0 28.0458V37.8375C0 41.1666 2.54583 43.7125 5.875 43.7125C7.05 43.7125 7.83333 42.9291 7.83333 41.7541C7.83333 40.5791 8.61667 39.7958 9.79167 39.7958C10.9667 39.7958 11.75 40.5791 11.75 41.7541C11.75 42.9291 12.5333 43.7125 13.7083 43.7125H31.3333C32.1167 43.7125 32.9 43.125 33.0958 42.3416C35.25 36.6625 37.6 33.9208 39.7542 33.9208C41.5167 33.9208 42.6917 34.5083 43.475 35.2916C44.65 36.4666 46.8042 35.6833 46.8042 33.9208V32.7458C46.8042 28.6333 43.8667 25.1083 39.7542 24.325ZM39.95 30.0041C35.8375 30.0041 32.5083 33.5291 29.9625 39.7958H15.275C14.4917 37.4458 12.3375 35.8791 9.79167 35.8791C7.44167 35.8791 5.48333 37.25 4.50417 39.2083C4.1125 38.8166 3.91667 38.425 3.91667 37.8375V30.0041H15.0792C15.4708 30.2 15.6667 30.3958 15.6667 30.5916C15.6667 31.375 15.4708 32.1583 15.275 32.9416L14.2958 35.2916C13.7083 36.4666 14.6875 37.8375 16.0583 37.8375H29.375C30.55 37.8375 31.3333 37.0541 31.3333 35.8791V20.2125C31.3333 19.0375 30.55 18.2541 29.375 18.2541V16.2958H33.2917V20.2125V20.8C33.2917 21.5833 33.6833 22.3666 34.4667 22.5625C35.4458 22.9541 35.8375 23.7375 36.425 26.4791C36.6208 27.4583 37.4042 28.0458 38.3833 28.0458C40.1458 28.0458 41.5167 29.025 42.3 30.2C41.7125 30.0041 40.7333 30.0041 39.95 30.0041Z" fill="#D4C7A0"/>
</g>
<defs>
<clipPath id="clip0_147_270">
<rect width="47" height="47" fill="white" transform="translate(0 0.62915)"/>
</clipPath>
</defs>
</svg>
