<svg width="40" height="47" viewBox="0 0 40 47" fill="none" xmlns="http://www.w3.org/2000/svg">
<path d="M3.05311 46.8166H36.9464C38.6328 46.8166 40 45.4529 40 43.7708V19.1012C40 17.419 38.6328 16.0552 36.9464 16.0552H36.3599C36.2137 7.17818 28.9335 0 19.9997 0C11.066 0 3.78564 7.17818 3.64012 16.0553H3.05364C1.3672 16.0553 0 17.419 0 19.1013V43.7714C0 45.4529 1.36667 46.8166 3.05311 46.8166ZM22.9662 31.5973V38.9914C22.9662 40.4813 21.7549 41.6898 20.261 41.6898H19.7378C18.244 41.6898 17.0326 40.4814 17.0326 38.9914V31.5973C15.4446 30.608 14.3841 28.8543 14.3841 26.8487C14.3841 23.7559 16.8979 21.248 19.9991 21.248C23.1003 21.248 25.614 23.7553 25.614 26.8487C25.6147 28.8543 24.5543 30.6081 22.9662 31.5973ZM19.9997 6.47608C25.3528 6.47608 29.7147 10.7497 29.8603 16.0553H10.1391C10.2847 10.7503 14.6466 6.47608 19.9997 6.47608Z" fill="#D4C7A0"/>
</svg>
