<svg width="49" height="47" viewBox="0 0 49 47" fill="none" xmlns="http://www.w3.org/2000/svg">
<path d="M43.742 18.2869C45.5072 19.2529 46.9384 20.6862 47.8612 22.412C48.784 24.1378 49.1584 26.0815 48.9388 28.006C48.7193 29.9306 47.9152 31.7528 46.6247 33.2505C45.3342 34.7483 43.6129 35.8567 41.671 36.4407C40.9846 39.4009 39.2551 42.0496 36.7688 43.9482C34.2825 45.8468 31.1885 46.8814 27.9991 46.8809H22.7515C22.2875 46.8809 21.8426 46.7057 21.5146 46.3939C21.1865 46.0822 21.0023 45.6593 21.0023 45.2184C21.0023 44.7775 21.1865 44.3547 21.5146 44.0429C21.8426 43.7311 22.2875 43.556 22.7515 43.556H27.9991C30.1703 43.5566 32.2883 42.9174 34.0614 41.7265C35.8345 40.5356 37.1755 38.8515 37.8997 36.9062H36.7452C36.2813 36.9062 35.8363 36.7311 35.5083 36.4193C35.1803 36.1075 34.996 35.6847 34.996 35.2438V18.6193C34.996 18.1784 35.1803 17.7556 35.5083 17.4438C35.8363 17.1321 36.2813 16.9569 36.7452 16.9569H38.4944C39.0611 16.9569 39.6174 17.0001 40.1631 17.0833C39.7693 13.3956 37.9493 9.97814 35.0556 7.49303C32.162 5.00792 28.4007 3.63207 24.5007 3.63207C20.6006 3.63207 16.8394 5.00792 13.9457 7.49303C11.0521 9.97814 9.23204 13.3956 8.83822 17.0833C9.39008 16.9992 9.94808 16.957 10.507 16.9569H12.2562C12.7201 16.9569 13.165 17.1321 13.4931 17.4438C13.8211 17.7556 14.0054 18.1784 14.0054 18.6193V35.2438C14.0054 35.6847 13.8211 36.1075 13.4931 36.4193C13.165 36.7311 12.7201 36.9062 12.2562 36.9062H10.507C8.19445 36.9087 5.94582 36.1851 4.11044 34.8481C2.27507 33.5111 0.955723 31.6353 0.357389 29.5124C-0.240945 27.3894 -0.0847644 25.138 0.801665 23.1081C1.6881 21.0782 3.25514 19.3833 5.25933 18.2869C5.25933 13.4369 7.28654 8.78555 10.895 5.3561C14.5034 1.92665 19.3976 0 24.5007 0C29.6038 0 34.4979 1.92665 38.1064 5.3561C41.7148 8.78555 43.742 13.4369 43.742 18.2869V18.2869ZM10.507 20.2818C8.65129 20.2818 6.87161 20.9824 5.55945 22.2295C4.24728 23.4765 3.51012 25.1679 3.51012 26.9316C3.51012 28.6952 4.24728 30.3866 5.55945 31.6337C6.87161 32.8807 8.65129 33.5813 10.507 33.5813V20.2818ZM45.4913 26.9316C45.4913 25.1679 44.7541 23.4765 43.4419 22.2295C42.1298 20.9824 40.3501 20.2818 38.4944 20.2818V33.5813C40.3501 33.5813 42.1298 32.8807 43.4419 31.6337C44.7541 30.3866 45.4913 28.6952 45.4913 26.9316Z" fill="#D4C7A0"/>
</svg>
